<svg width="371" height="237" viewBox="0 0 371 237" fill="none" xmlns="http://www.w3.org/2000/svg">
<g clip-path="url(#clip0_11412_74412)">
<path d="M165.111 58.3397C165.039 58.3397 164.967 58.3371 164.895 58.3326C160.136 58.0285 143.851 55.7377 134.126 39.0151C133.408 37.7808 133.549 36.2102 134.479 35.108C142.601 28.5392 148.946 21.43 152.69 13.5306C153.367 12.7292 154.381 12.2911 155.408 12.3091C156.463 12.3339 157.435 12.8277 158.075 13.6639C162.692 19.6976 171.808 30.3788 180.98 34.1236C182.011 34.5449 182.757 35.3998 183.028 36.4705C183.296 37.5322 183.048 38.6267 182.347 39.4732L167.758 57.0899C167.102 57.8823 166.125 58.3397 165.111 58.3397Z" fill="#ADCFDC"/>
<path d="M137.49 36.169C137.242 36.464 137.196 36.8847 137.377 37.2171C146.175 53.3283 161.905 54.5923 164.969 54.6818C165.264 54.6986 165.54 54.5665 165.728 54.3404L180.212 36.8506C180.417 36.6025 180.48 36.2862 180.386 35.9809C180.29 35.6742 180.057 35.4455 179.744 35.3553C169.907 32.4963 159.585 19.2538 156.656 15.2628C156.485 15.0296 156.22 14.8898 155.931 14.8802C155.633 14.8773 155.362 14.9936 155.172 15.2178C150.981 23.3441 145.113 30.3454 137.49 36.169Z" fill="white"/>
<path d="M137.49 36.169C137.242 36.464 137.196 36.8847 137.377 37.2171C146.175 53.3283 161.905 54.5923 164.969 54.6818C165.264 54.6986 165.54 54.5665 165.728 54.3404L180.212 36.8506C180.417 36.6025 180.48 36.2862 180.386 35.9809C180.29 35.6742 180.057 35.4455 179.744 35.3553C169.907 32.4963 159.585 19.2538 156.656 15.2628C156.485 15.0296 156.22 14.8898 155.931 14.8802C155.633 14.8773 155.362 14.9936 155.172 15.2178C150.981 23.3441 145.113 30.3454 137.49 36.169Z" fill="#3A7D95" fill-opacity="0.05"/>
<path d="M144.784 39.9428L157.913 26.6301C158.81 25.7201 157.404 24.3196 156.506 25.2308L143.377 38.5435C142.479 39.4535 143.885 40.854 144.784 39.9428Z" fill="#ADCFDC"/>
<path d="M152.708 43.6935C156.332 40.4637 159.48 36.724 162.059 32.6206C162.739 31.5374 161.018 30.5428 160.34 31.6217C157.848 35.5889 154.804 39.172 151.301 42.2941C150.345 43.146 151.756 44.5418 152.708 43.6935Z" fill="#E6E6E6"/>
<path d="M159.85 48.1845C163.149 44.5502 165.957 40.4941 168.168 36.1189C168.742 34.9838 167.026 33.9806 166.45 35.12C164.314 39.3473 161.631 43.273 158.443 46.7851C157.587 47.7284 158.99 49.1323 159.85 48.1845Z" fill="#E6E6E6"/>
<path d="M177.051 63.617C176.979 63.617 176.907 63.6145 176.835 63.61C172.076 63.3059 155.792 61.0151 146.066 44.2925C145.348 43.0582 145.49 41.4876 146.42 40.3853C154.136 33.7299 159.945 26.4522 164.63 18.8079C165.307 18.0065 166.322 17.5684 167.349 17.5865C168.403 17.6113 169.375 18.1051 170.015 18.9413C174.632 24.975 183.748 35.6561 192.92 39.4009C193.951 39.8223 194.697 40.6771 194.968 41.7478C195.236 42.8095 194.988 43.904 194.287 44.7505L179.698 62.3673C179.042 63.1597 178.065 63.617 177.051 63.617Z" fill="#ADCFDC"/>
<path d="M149.43 41.4463C149.182 41.7414 149.136 42.162 149.317 42.4945C158.116 58.6057 173.845 59.8696 176.909 59.9592C177.204 59.9759 177.481 59.8439 177.668 59.6177L192.152 42.1279C192.357 41.8799 192.42 41.5636 192.326 41.2582C192.231 40.9516 191.997 40.7229 191.684 40.6327C181.847 37.7736 171.525 24.5311 168.596 20.5402C168.425 20.307 168.16 20.1672 167.871 20.1575C167.573 20.1546 167.302 20.2709 167.113 20.4951C162.092 28.7914 156.444 36.1455 149.43 41.4463Z" fill="white"/>
<path d="M149.43 41.4463C149.182 41.7414 149.136 42.162 149.317 42.4945C158.116 58.6057 173.845 59.8696 176.909 59.9592C177.204 59.9759 177.481 59.8439 177.668 59.6177L192.152 42.1279C192.357 41.8799 192.42 41.5636 192.326 41.2582C192.231 40.9516 191.997 40.7229 191.684 40.6327C181.847 37.7736 171.525 24.5311 168.596 20.5402C168.425 20.307 168.16 20.1672 167.871 20.1575C167.573 20.1546 167.302 20.2709 167.113 20.4951C162.092 28.7914 156.444 36.1455 149.43 41.4463Z" fill="#3A7D95" fill-opacity="0.05"/>
<path d="M156.724 45.2202L169.853 31.9075C170.751 30.9975 169.345 29.5969 168.446 30.5081L155.317 43.8208C154.419 44.7308 155.825 46.1314 156.724 45.2202Z" fill="#ADCFDC"/>
<path d="M164.648 48.9708C168.272 45.741 171.421 42.0014 173.999 37.8979C174.68 36.8147 172.959 35.8202 172.281 36.8991C169.788 40.8663 166.744 44.4493 163.241 47.5715C162.285 48.4233 163.697 49.8191 164.648 48.9708Z" fill="#ADCFDC"/>
<path d="M171.79 53.4618C175.089 49.8276 177.898 45.7715 180.109 41.3962C180.682 40.2612 178.966 39.2579 178.39 40.3973C176.254 44.6246 173.571 48.5503 170.383 52.0625C169.527 53.0057 170.93 54.4097 171.79 53.4618Z" fill="#ADCFDC"/>
<path d="M307.73 186.317C307.658 186.317 307.586 186.315 307.514 186.31C302.755 186.006 286.471 183.715 276.745 166.993C276.027 165.758 276.169 164.188 277.099 163.086L295.31 141.508C295.986 140.707 297.001 140.269 298.028 140.287C299.082 140.311 300.436 140.622 300.694 141.641C302.792 149.922 311.828 160.675 323.599 162.101C324.706 162.235 325.377 163.377 325.647 164.448C325.916 165.51 325.667 166.604 324.966 167.451L310.377 185.067C309.721 185.86 308.744 186.317 307.73 186.317Z" fill="#ADCFDC"/>
<path d="M280.109 164.147C279.861 164.442 279.816 164.862 279.997 165.195C288.795 181.306 304.524 182.57 307.588 182.659C307.883 182.676 308.16 182.544 308.347 182.318L322.831 164.828C323.036 164.58 323.099 164.264 323.005 163.958C322.91 163.652 322.688 163.348 322.363 163.333C309.842 162.749 299.784 149.283 299.276 143.24C299.251 142.953 298.84 142.867 298.55 142.858C298.252 142.855 297.981 142.971 297.792 143.195L280.109 164.147Z" fill="white"/>
<path d="M280.109 164.147C279.861 164.442 279.816 164.862 279.997 165.195C288.795 181.306 304.524 182.57 307.588 182.659C307.883 182.676 308.16 182.544 308.347 182.318L322.831 164.828C323.036 164.58 323.099 164.264 323.005 163.958C322.91 163.652 322.688 163.348 322.363 163.333C309.842 162.749 299.784 149.283 299.276 143.24C299.251 142.953 298.84 142.867 298.55 142.858C298.252 142.855 297.981 142.971 297.792 143.195L280.109 164.147Z" fill="#3A7D95" fill-opacity="0.05"/>
<path d="M287.403 167.92L300.532 154.608C301.43 153.698 300.024 152.297 299.125 153.208L285.996 166.521C285.098 167.431 286.505 168.832 287.403 167.92Z" fill="#ADCFDC"/>
<path d="M295.328 171.671C298.951 168.441 302.1 164.702 304.678 160.598C305.359 159.515 303.638 158.52 302.96 159.599C300.467 163.566 297.423 167.15 293.92 170.272C292.965 171.124 294.376 172.519 295.328 171.671Z" fill="#ADCFDC"/>
<path d="M302.47 176.162C305.769 172.528 308.577 168.472 310.788 164.096C311.361 162.961 309.645 161.958 309.069 163.098C306.933 167.325 304.251 171.251 301.062 174.763C300.206 175.706 301.609 177.11 302.47 176.162Z" fill="#ADCFDC"/>
<path d="M276.373 160.197C275.983 158.508 276.013 156.868 276.378 155.509L271.638 139.659L279.356 137.578L283.333 153.881C284.255 154.938 284.999 156.397 285.388 158.086C286.278 161.945 284.981 165.546 282.491 166.129C280.002 166.712 277.262 164.056 276.373 160.197Z" fill="#FFB6B6"/>
<path d="M232.462 54.5417C232.462 54.5417 244.899 49.1581 251.844 56.9378C258.165 64.0188 270.996 85.3268 269.679 87.3999L282.311 146.761L272.947 149.629L248.109 81.3508L232.462 54.5417Z" fill="#3A7D95"/>
<path d="M218.764 142.512L225.172 216.86L240.659 285.897L257.213 284.304L249.203 208.894L254.105 141.877L218.764 142.512Z" fill="#14333D"/>
<path d="M220.089 158.644L260.002 221.833L305.542 276.167L319.528 267.216L277.702 203.813C271.3 175.884 264.211 150.031 251.219 141.995L220.089 158.644Z" fill="#14333D"/>
<path d="M222.418 158.953C220.546 158.953 218.733 158.298 217.255 157.052C215.271 155.379 214.238 152.94 214.42 150.36L217.901 117.14L216.572 80.8639L216.58 80.8246L220.714 61.1116C220.754 60.4851 220.887 59.8219 221.1 59.1851L227.205 40.9299C228.303 37.6463 231.378 35.4402 234.858 35.4402H240.257C242.96 35.4402 245.469 36.7753 246.968 39.012L251.695 46.0624C252.009 46.5307 252.274 47.0335 252.482 47.5569L262.916 73.7453C263.247 74.5767 263.436 75.4512 263.476 76.3444L266.713 149.025C266.821 151.438 265.845 153.747 264.036 155.36C262.238 156.964 259.838 157.673 257.459 157.308C243.834 155.216 231.909 156.927 224.304 158.731C223.675 158.88 223.043 158.953 222.418 158.953Z" fill="#3A7D95"/>
<path d="M235.835 33.8154C244.407 33.8154 251.357 26.9042 251.357 18.3788C251.357 9.85346 244.407 2.94226 235.835 2.94226C227.262 2.94226 220.312 9.85346 220.312 18.3788C220.312 26.9042 227.262 33.8154 235.835 33.8154Z" fill="#FFB6B6"/>
<path d="M248.127 30.0484C246.727 30.5683 244.58 31.3767 243.18 31.8966C241.874 29.3078 243.474 27.9645 243.64 25.0729C243.695 24.108 243.835 23.1419 243.755 22.1787C243.675 21.2155 243.342 20.2267 242.611 19.5894C241.493 18.6144 239.632 18.773 238.55 19.787C237.468 20.801 237.16 22.4765 237.602 23.8881C233.346 22.0584 230.596 17.2584 231.184 12.6845C229.913 12.189 228.61 11.6868 227.245 11.6489C225.881 11.611 224.418 12.1289 223.691 13.2779C223.181 14.0836 223.079 15.1064 222.507 15.8696C221.577 17.1096 219.568 17.2057 218.333 16.2651C217.098 15.3244 216.626 13.615 216.889 12.0905C217.152 10.5659 215.236 7.45471 216.309 6.3345C217.041 5.57032 220.673 6.65311 221.489 5.97899C222.234 5.36397 222.981 4.74692 223.802 4.2367C224.844 3.58905 225.998 3.12004 227.198 2.8565C228.333 2.60721 229.5 2.54173 230.661 2.47705C231.839 2.41138 233.469 0.0782567 234.647 0.0125857C238.116 -0.180753 241.216 1.90241 244.544 2.89419C247.873 3.88597 249.967 6.73399 251.809 9.66356C254.433 13.8365 253.541 18.4088 251.734 22.3989C251.287 23.3852 252.786 24.4217 252.564 25.4806C252.358 26.4649 251.431 27.1778 251.214 28.1599C251.029 28.9997 249.933 28.0268 249.671 28.8463C249.446 29.5535 248.781 30.0528 248.07 30.2785C247.359 30.5042 246.598 30.4996 245.852 30.4929" fill="#2F2E41"/>
<path d="M166.512 53.7453C167.912 54.664 168.987 55.8209 169.641 57.0012L183.532 64.915L179.552 71.3782L165.889 62.6546C164.541 62.5208 163.049 61.9927 161.649 61.0741C158.451 58.9754 156.947 55.6335 158.29 53.6097C159.633 51.5859 163.314 51.6467 166.512 53.7453Z" fill="#FFB6B6"/>
<path d="M231.869 45.4029C240.728 40.0003 249.629 52.3726 241.753 59.1136L241.726 59.1365L210.255 88.5723L172.592 70.0765L176.316 60.0901L205.496 71.5851L227.385 48.9873C228.909 47.4701 230.408 46.2943 231.869 45.4029Z" fill="#3A7D95"/>
<path d="M45.3033 94.5527C44.5716 94.5527 43.9766 95.1444 43.9766 95.8721V116.322C43.9766 117.05 44.5716 117.641 45.3033 117.641C46.0349 117.641 46.6299 117.05 46.6299 116.322V95.8721C46.6299 95.1444 46.0349 94.5527 45.3033 94.5527Z" fill="#82B4C9"/>
<path d="M58.3056 114.258C62.8715 114.258 66.573 110.654 66.573 106.209C66.573 101.764 62.8715 98.1609 58.3056 98.1609C53.7396 98.1609 50.0381 101.764 50.0381 106.209C50.0381 110.654 53.7396 114.258 58.3056 114.258Z" fill="#3A7D95"/>
<path d="M124.582 103.456H80.0819C78.5552 103.456 77.3131 102.221 77.3131 100.703C77.3131 99.1843 78.5552 97.9491 80.0819 97.9491H124.582C126.109 97.9491 127.351 99.1843 127.351 100.703C127.351 102.221 126.109 103.456 124.582 103.456Z" fill="white"/>
<path d="M124.582 103.456H80.0819C78.5552 103.456 77.3131 102.221 77.3131 100.703C77.3131 99.1843 78.5552 97.9491 80.0819 97.9491H124.582C126.109 97.9491 127.351 99.1843 127.351 100.703C127.351 102.221 126.109 103.456 124.582 103.456Z" fill="#3A7D95" fill-opacity="0.05"/>
<path d="M159.311 112.775H80.0819C78.5552 112.775 77.3131 111.54 77.3131 110.022C77.3131 108.504 78.5552 107.268 80.0819 107.268H159.311C160.837 107.268 162.08 108.504 162.08 110.022C162.08 111.54 160.837 112.775 159.311 112.775Z" fill="white"/>
<path d="M159.311 112.775H80.0819C78.5552 112.775 77.3131 111.54 77.3131 110.022C77.3131 108.504 78.5552 107.268 80.0819 107.268H159.311C160.837 107.268 162.08 108.504 162.08 110.022C162.08 111.54 160.837 112.775 159.311 112.775Z" fill="#3A7D95" fill-opacity="0.05"/>
<path d="M8.26747 157.784C12.8335 157.784 16.5349 154.18 16.5349 149.735C16.5349 145.29 12.8335 141.687 8.26747 141.687C3.70147 141.687 0 145.29 0 149.735C0 154.18 3.70147 157.784 8.26747 157.784Z" fill="#3A7D95"/>
<path d="M74.5443 146.982H30.0438C28.5171 146.982 27.275 145.746 27.275 144.228C27.275 142.71 28.5171 141.475 30.0438 141.475H74.5443C76.071 141.475 77.3131 142.71 77.3131 144.228C77.3131 145.746 76.071 146.982 74.5443 146.982Z" fill="white"/>
<path d="M74.5443 146.982H30.0438C28.5171 146.982 27.275 145.746 27.275 144.228C27.275 142.71 28.5171 141.475 30.0438 141.475H74.5443C76.071 141.475 77.3131 142.71 77.3131 144.228C77.3131 145.746 76.071 146.982 74.5443 146.982Z" fill="#3A7D95" fill-opacity="0.05"/>
<path d="M85.9174 184.177C90.4834 184.177 94.1848 180.574 94.1848 176.129C94.1848 171.684 90.4834 168.08 85.9174 168.08C81.3514 168.08 77.6499 171.684 77.6499 176.129C77.6499 180.574 81.3514 184.177 85.9174 184.177Z" fill="#3A7D95"/>
<path d="M186.923 182.695H107.694C106.167 182.695 104.925 181.46 104.925 179.941C104.925 178.423 106.167 177.188 107.694 177.188H186.923C188.449 177.188 189.691 178.423 189.691 179.941C189.691 181.46 188.449 182.695 186.923 182.695Z" fill="white"/>
<path d="M186.923 182.695H107.694C106.167 182.695 104.925 181.46 104.925 179.941C104.925 178.423 106.167 177.188 107.694 177.188H186.923C188.449 177.188 189.691 178.423 189.691 179.941C189.691 181.46 188.449 182.695 186.923 182.695Z" fill="#3A7D95" fill-opacity="0.05"/>
<path d="M167.349 33.6836C171.915 33.6836 175.616 30.0801 175.616 25.6351C175.616 21.19 171.915 17.5865 167.349 17.5865C162.783 17.5865 159.081 21.19 159.081 25.6351C159.081 30.0801 162.783 33.6836 167.349 33.6836Z" fill="#3A7D95"/>
<path d="M319.528 168.613C324.094 168.613 327.795 165.009 327.795 160.564C327.795 156.119 324.094 152.516 319.528 152.516C314.962 152.516 311.26 156.119 311.26 160.564C311.26 165.009 314.962 168.613 319.528 168.613Z" fill="#3A7D95"/>
</g>
<defs>
<clipPath id="clip0_11412_74412">
<rect width="371" height="307" fill="white"/>
</clipPath>
</defs>
</svg>
