<svg width="428" height="248" viewBox="0 0 428 248" fill="none" xmlns="http://www.w3.org/2000/svg">
<g clip-path="url(#clip0_11368_846)">
<path d="M227.579 82.1265H79.5243C75.9559 82.1225 72.5347 80.6997 70.0114 78.1703C67.4882 75.6408 66.0688 72.2114 66.0648 68.6343V13.4922C66.0689 9.9151 67.4882 6.48567 70.0115 3.95627C72.5348 1.42687 75.9559 0.00406785 79.5243 0H227.579C231.147 0.0040663 234.568 1.42687 237.091 3.95627C239.615 6.48567 241.034 9.9151 241.038 13.4922V68.6343C241.034 72.2114 239.615 75.6408 237.091 78.1703C234.568 80.6997 231.147 82.1225 227.579 82.1265Z" fill="white"/>
<path d="M227.579 82.1265H79.5243C75.9559 82.1225 72.5347 80.6997 70.0114 78.1703C67.4882 75.6408 66.0688 72.2114 66.0648 68.6343V13.4922C66.0689 9.9151 67.4882 6.48567 70.0115 3.95627C72.5348 1.42687 75.9559 0.00406785 79.5243 0H227.579C231.147 0.0040663 234.568 1.42687 237.091 3.95627C239.615 6.48567 241.034 9.9151 241.038 13.4922V68.6343C241.034 72.2114 239.615 75.6408 237.091 78.1703C234.568 80.6997 231.147 82.1225 227.579 82.1265Z" fill="#3A7D95" fill-opacity="0.05"/>
<path d="M227.579 82.1265H79.5243C75.9559 82.1225 72.5347 80.6997 70.0114 78.1703C67.4882 75.6408 66.0688 72.2114 66.0648 68.6343V13.4922C66.0689 9.9151 67.4882 6.48567 70.0115 3.95627C72.5348 1.42687 75.9559 0.00406785 79.5243 0H227.579C231.147 0.0040663 234.568 1.42687 237.091 3.95627C239.615 6.48567 241.034 9.9151 241.038 13.4922V68.6343C241.034 72.2114 239.615 75.6408 237.091 78.1703C234.568 80.6997 231.147 82.1225 227.579 82.1265ZM79.5243 1.17324C76.2662 1.1769 73.1425 2.47596 70.8386 4.78542C68.5348 7.09489 67.2389 10.2261 67.2352 13.4922V68.6343C67.2389 71.9003 68.5348 75.0315 70.8387 77.341C73.1425 79.6504 76.2662 80.9495 79.5243 80.9532H227.579C230.837 80.9495 233.96 79.6504 236.264 77.341C238.568 75.0315 239.864 71.9003 239.868 68.6343V13.4922C239.864 10.2261 238.568 7.09489 236.264 4.78542C233.96 2.47596 230.837 1.1769 227.579 1.17324H79.5243Z" fill="#382936"/>
<path d="M283.601 89.631H204.852C204.355 89.6252 203.86 89.5624 203.377 89.4437C201.937 89.0967 200.655 88.2726 199.739 87.1047C198.824 85.9368 198.328 84.4934 198.333 83.0081V56.176C198.335 54.4209 199.032 52.7386 200.271 51.4981C201.51 50.2576 203.189 49.5603 204.939 49.5591H283.601C284.662 49.5563 285.707 49.8127 286.646 50.3061C287.02 50.5005 287.374 50.7319 287.702 50.9967C288.485 51.6117 289.119 52.3979 289.553 53.2955C289.987 54.1932 290.211 55.1784 290.208 56.176V83.0081C290.206 84.764 289.509 86.4474 288.271 87.689C287.032 88.9307 285.353 89.6291 283.601 89.631Z" fill="white"/>
<path d="M283.601 89.631H204.852C204.355 89.6252 203.86 89.5624 203.377 89.4437C201.937 89.0967 200.655 88.2726 199.739 87.1047C198.824 85.9368 198.328 84.4934 198.333 83.0081V56.176C198.335 54.4209 199.032 52.7386 200.271 51.4981C201.51 50.2576 203.189 49.5603 204.939 49.5591H283.601C284.662 49.5563 285.707 49.8127 286.646 50.3061C287.02 50.5005 287.374 50.7319 287.702 50.9967C288.485 51.6117 289.119 52.3979 289.553 53.2955C289.987 54.1932 290.211 55.1784 290.208 56.176V83.0081C290.206 84.764 289.509 86.4474 288.271 87.689C287.032 88.9307 285.353 89.6291 283.601 89.631Z" fill="#3A7D95" fill-opacity="0.05"/>
<path d="M283.601 89.631H204.852C204.355 89.6252 203.86 89.5624 203.377 89.4437C201.937 89.0967 200.655 88.2726 199.739 87.1047C198.824 85.9368 198.328 84.4934 198.333 83.0081V56.176C198.335 54.4209 199.032 52.7386 200.271 51.4981C201.51 50.2576 203.189 49.5603 204.939 49.5591H283.601C284.662 49.5563 285.707 49.8127 286.646 50.3061C287.02 50.5005 287.374 50.7319 287.702 50.9967C288.485 51.6117 289.119 52.3979 289.553 53.2955C289.987 54.1932 290.211 55.1784 290.208 56.176V83.0081C290.206 84.764 289.509 86.4474 288.271 87.689C287.032 88.9307 285.353 89.6291 283.601 89.631ZM204.939 50.7323C203.499 50.7332 202.118 51.3068 201.098 52.3274C200.079 53.3479 199.505 54.732 199.503 56.176V83.0081C199.499 84.2304 199.907 85.4183 200.661 86.3794C201.414 87.3405 202.469 88.0187 203.655 88.3042C204.049 88.4011 204.453 88.4526 204.859 88.4578H283.601C285.043 88.4561 286.424 87.8814 287.444 86.8597C288.463 85.8381 289.036 84.4529 289.038 83.0081V56.176C289.04 55.3551 288.855 54.5444 288.498 53.8059C288.14 53.0674 287.618 52.4207 286.973 51.915C286.704 51.6973 286.414 51.5071 286.107 51.3473C285.334 50.9412 284.474 50.7301 283.601 50.7323H204.939Z" fill="#3F3D56"/>
<path d="M126.987 115.263H13.4595C9.89103 115.259 6.46989 113.837 3.94662 111.307C1.42334 108.778 0.00400852 105.348 0 101.771V81.8262C0.00405643 78.2491 1.42341 74.8197 3.94667 72.2903C6.46993 69.7609 9.89105 68.3381 13.4595 68.334H126.987C130.556 68.3381 133.977 69.7609 136.5 72.2903C139.023 74.8197 140.443 78.2491 140.447 81.8262V101.771C140.443 105.348 139.023 108.778 136.5 111.307C133.977 113.837 130.556 115.259 126.987 115.263Z" fill="white"/>
<path d="M126.987 115.263H13.4595C9.89103 115.259 6.46989 113.837 3.94662 111.307C1.42334 108.778 0.00400852 105.348 0 101.771V81.8262C0.00405643 78.2491 1.42341 74.8197 3.94667 72.2903C6.46993 69.7609 9.89105 68.3381 13.4595 68.334H126.987C130.556 68.3381 133.977 69.7609 136.5 72.2903C139.023 74.8197 140.443 78.2491 140.447 81.8262V101.771C140.443 105.348 139.023 108.778 136.5 111.307C133.977 113.837 130.556 115.259 126.987 115.263Z" fill="#3A7D95" fill-opacity="0.05"/>
<path d="M126.987 115.263H13.4595C9.89103 115.259 6.46989 113.837 3.94662 111.307C1.42334 108.778 0.00400852 105.348 0 101.771V81.8262C0.00405643 78.2491 1.42341 74.8197 3.94667 72.2903C6.46993 69.7609 9.89105 68.3381 13.4595 68.334H126.987C130.556 68.3381 133.977 69.7609 136.5 72.2903C139.023 74.8197 140.443 78.2491 140.447 81.8262V101.771C140.443 105.348 139.023 108.778 136.5 111.307C133.977 113.837 130.556 115.259 126.987 115.263ZM13.4595 69.5072C10.2013 69.5109 7.07768 70.8099 4.77382 73.1194C2.46996 75.4289 1.17404 78.5601 1.17039 81.8262V101.771C1.17409 105.037 2.47002 108.168 4.77387 110.478C7.07772 112.787 10.2013 114.086 13.4595 114.09H126.987C130.245 114.086 133.369 112.787 135.673 110.478C137.977 108.168 139.273 105.037 139.276 101.771V81.8262C139.273 78.5601 137.977 75.4289 135.673 73.1194C133.369 70.8099 130.245 69.5109 126.987 69.5072H13.4595Z" fill="#382936"/>
<path d="M46.794 104.045H28.5427C27.5672 104.044 26.6318 103.655 25.942 102.963C25.2521 102.272 24.8641 101.334 24.863 100.356V83.2411C24.8641 82.2632 25.2521 81.3256 25.942 80.6341C26.6318 79.9425 27.5672 79.5536 28.5427 79.5525H46.794C47.7696 79.5536 48.7049 79.9425 49.3947 80.6341C50.0846 81.3256 50.4726 82.2632 50.4737 83.2411V100.356C50.4726 101.334 50.0846 102.272 49.3947 102.963C48.7049 103.655 47.7695 104.044 46.794 104.045Z" fill="#5C395A"/>
<path d="M79.349 104.045H61.0978C60.1222 104.044 59.1869 103.655 58.497 102.963C57.8072 102.272 57.4192 101.334 57.4181 100.356V83.2411C57.4192 82.2632 57.8072 81.3256 58.497 80.6341C59.1869 79.9425 60.1222 79.5536 61.0978 79.5525H79.349C80.3246 79.5536 81.2599 79.9425 81.9498 80.6341C82.6396 81.3256 83.0277 82.2632 83.0287 83.2411V100.356C83.0276 101.334 82.6396 102.272 81.9498 102.963C81.2599 103.655 80.3246 104.044 79.349 104.045Z" fill="#E2BEE4"/>
<path d="M111.904 104.045H93.6528C92.6773 104.044 91.7419 103.655 91.0521 102.963C90.3623 102.272 89.9742 101.334 89.9731 100.356V83.2411C89.9742 82.2632 90.3623 81.3256 91.0521 80.6341C91.7419 79.9425 92.6773 79.5536 93.6528 79.5525H111.904C112.88 79.5536 113.815 79.9425 114.505 80.6341C115.195 81.3256 115.583 82.2632 115.584 83.2411V100.356C115.583 101.334 115.195 102.272 114.505 102.963C113.815 103.655 112.88 104.044 111.904 104.045Z" fill="#E2BEE4"/>
<path d="M160.77 32.5504H137.362C136.741 32.5504 136.146 32.3031 135.707 31.8631C135.268 31.423 135.021 30.8262 135.021 30.2039C135.021 29.5816 135.268 28.9847 135.707 28.5447C136.146 28.1046 136.741 27.8574 137.362 27.8574H160.77C161.39 27.8574 161.986 28.1046 162.425 28.5447C162.864 28.9847 163.11 29.5816 163.11 30.2039C163.11 30.8262 162.864 31.423 162.425 31.8631C161.986 32.3031 161.39 32.5504 160.77 32.5504Z" fill="#E2BEE4"/>
<path d="M211.096 45.456H136.777C136.156 45.456 135.56 45.2088 135.121 44.7687C134.682 44.3287 134.436 43.7319 134.436 43.1095C134.436 42.4872 134.682 41.8904 135.121 41.4503C135.56 41.0103 136.156 40.7631 136.777 40.7631H211.096C211.717 40.7631 212.313 41.0103 212.751 41.4503C213.19 41.8904 213.437 42.4872 213.437 43.1095C213.437 43.7319 213.19 44.3287 212.751 44.7687C212.313 45.2088 211.717 45.456 211.096 45.456Z" fill="#E2BEE4"/>
<path d="M109.563 52.3891C118.231 52.3891 125.257 45.3454 125.257 36.6566C125.257 27.9678 118.231 20.9242 109.563 20.9242C100.895 20.9242 93.8685 27.9678 93.8685 36.6566C93.8685 45.3454 100.895 52.3891 109.563 52.3891Z" fill="#5C395A"/>
<path d="M280.308 183.898H132.254C128.686 183.894 125.264 182.471 122.741 179.942C120.218 177.412 118.799 173.983 118.795 170.406V115.263C118.799 111.686 120.218 108.257 122.741 105.728C125.264 103.198 128.686 101.775 132.254 101.771H280.308C283.877 101.775 287.298 103.198 289.821 105.728C292.344 108.257 293.764 111.686 293.768 115.263V170.406C293.764 173.983 292.344 177.412 289.821 179.942C287.298 182.471 283.877 183.894 280.308 183.898Z" fill="white"/>
<path d="M280.308 183.898H132.254C128.686 183.894 125.264 182.471 122.741 179.942C120.218 177.412 118.799 173.983 118.795 170.406V115.263C118.799 111.686 120.218 108.257 122.741 105.728C125.264 103.198 128.686 101.775 132.254 101.771H280.308C283.877 101.775 287.298 103.198 289.821 105.728C292.344 108.257 293.764 111.686 293.768 115.263V170.406C293.764 173.983 292.344 177.412 289.821 179.942C287.298 182.471 283.877 183.894 280.308 183.898Z" fill="#3A7D95" fill-opacity="0.05"/>
<path d="M280.308 183.898H132.254C128.686 183.894 125.264 182.471 122.741 179.942C120.218 177.412 118.799 173.983 118.795 170.406V115.263C118.799 111.686 120.218 108.257 122.741 105.728C125.264 103.198 128.686 101.775 132.254 101.771H280.308C283.877 101.775 287.298 103.198 289.821 105.728C292.344 108.257 293.764 111.686 293.768 115.263V170.406C293.764 173.983 292.344 177.412 289.821 179.942C287.298 182.471 283.877 183.894 280.308 183.898ZM132.254 102.944C128.996 102.948 125.872 104.247 123.568 106.557C121.265 108.866 119.969 111.997 119.965 115.263V170.406C119.969 173.672 121.265 176.803 123.568 179.112C125.872 181.422 128.996 182.721 132.254 182.724H280.308C283.566 182.721 286.69 181.422 288.994 179.112C291.298 176.803 292.594 173.672 292.597 170.406V115.263C292.594 111.997 291.298 108.866 288.994 106.557C286.69 104.247 283.566 102.948 280.308 102.944H132.254Z" fill="#382936"/>
<path d="M189.918 123.619H165.05C164.737 123.619 164.428 123.558 164.14 123.439C163.851 123.319 163.589 123.144 163.368 122.923C163.147 122.702 162.972 122.439 162.852 122.15C162.732 121.861 162.671 121.551 162.671 121.238C162.671 120.925 162.732 120.616 162.852 120.326C162.972 120.037 163.147 119.775 163.368 119.554C163.589 119.333 163.851 119.157 164.14 119.038C164.428 118.918 164.737 118.857 165.05 118.858H189.918C190.548 118.859 191.151 119.11 191.595 119.556C192.04 120.003 192.289 120.608 192.289 121.238C192.289 121.869 192.04 122.474 191.595 122.92C191.151 123.367 190.548 123.618 189.918 123.619Z" fill="#5C395A"/>
<path d="M245.666 133.356H165.049C164.42 133.356 163.815 133.105 163.37 132.659C162.925 132.212 162.675 131.607 162.675 130.975C162.675 130.344 162.925 129.738 163.37 129.292C163.815 128.845 164.42 128.595 165.049 128.595H245.666C246.296 128.595 246.9 128.845 247.345 129.292C247.791 129.738 248.041 130.344 248.041 130.975C248.041 131.607 247.791 132.212 247.345 132.659C246.9 133.105 246.296 133.356 245.666 133.356Z" fill="#E2BEE4"/>
<path d="M245.666 144.533H165.049C164.738 144.533 164.429 144.471 164.141 144.351C163.852 144.232 163.591 144.056 163.37 143.835C163.15 143.614 162.975 143.352 162.855 143.063C162.736 142.774 162.675 142.465 162.675 142.152C162.675 141.839 162.736 141.53 162.855 141.241C162.975 140.952 163.15 140.69 163.37 140.469C163.591 140.247 163.852 140.072 164.141 139.952C164.429 139.833 164.738 139.771 165.049 139.771H245.666C246.296 139.771 246.9 140.022 247.345 140.469C247.791 140.915 248.041 141.521 248.041 142.152C248.041 142.783 247.791 143.389 247.345 143.835C246.9 144.282 246.296 144.533 245.666 144.533Z" fill="#E2BEE4"/>
<path d="M280.914 67H210.086C209.533 67 209.002 66.7366 208.611 66.2678C208.22 65.7989 208 65.1631 208 64.5C208 63.837 208.22 63.2011 208.611 62.7322C209.002 62.2634 209.533 62 210.086 62H280.914C281.467 62 281.998 62.2634 282.389 62.7322C282.78 63.2011 283 63.837 283 64.5C283 65.1631 282.78 65.7989 282.389 66.2678C281.998 66.7366 281.467 67 280.914 67Z" fill="#E2BEE4"/>
<path d="M280.914 78H210.086C209.812 78 209.541 77.9353 209.288 77.8097C209.035 77.6841 208.805 77.4999 208.611 77.2678C208.417 77.0356 208.264 76.76 208.159 76.4567C208.054 76.1534 208 75.8283 208 75.5C208 75.1717 208.054 74.8466 208.159 74.5433C208.264 74.24 208.417 73.9644 208.611 73.7322C208.805 73.5001 209.035 73.3159 209.288 73.1903C209.541 73.0647 209.812 73 210.086 73H280.914C281.467 73 281.998 73.2634 282.389 73.7322C282.78 74.2011 283 74.837 283 75.5C283 76.163 282.78 76.7989 282.389 77.2678C281.998 77.7366 281.467 78 280.914 78Z" fill="#E2BEE4"/>
<path d="M245.666 155.709H165.05C164.737 155.71 164.428 155.648 164.14 155.529C163.851 155.41 163.589 155.234 163.368 155.013C163.147 154.792 162.972 154.53 162.852 154.24C162.732 153.951 162.671 153.641 162.671 153.329C162.671 153.016 162.732 152.706 162.852 152.417C162.972 152.128 163.147 151.865 163.368 151.644C163.589 151.423 163.851 151.247 164.14 151.128C164.428 151.009 164.737 150.947 165.05 150.948H245.666C246.295 150.949 246.898 151.2 247.343 151.646C247.787 152.093 248.037 152.698 248.037 153.329C248.037 153.959 247.787 154.564 247.343 155.011C246.898 155.457 246.295 155.708 245.666 155.709Z" fill="#E2BEE4"/>
<path d="M245.666 166.886H165.049C164.42 166.886 163.815 166.635 163.37 166.189C162.925 165.742 162.675 165.137 162.675 164.505C162.675 163.874 162.925 163.268 163.37 162.822C163.815 162.375 164.42 162.125 165.049 162.125H245.666C246.296 162.125 246.9 162.375 247.345 162.822C247.791 163.268 248.041 163.874 248.041 164.505C248.041 165.137 247.791 165.742 247.345 166.189C246.9 166.635 246.296 166.886 245.666 166.886Z" fill="#E2BEE4"/>
<path d="M382.621 186.803L383.296 188.249C387.734 197.754 388.869 208.38 387.144 218.731C387.016 219.135 387.041 219.572 387.213 219.959C388.283 221.217 386.605 226.681 385.643 229.732L384.776 235.128C384.776 235.128 386.213 240.139 384.029 239.77C381.846 239.402 385.098 244.747 383.015 246.086L377.611 279.712L400.155 316.959L391.806 329.096L358.406 285.989L357.989 247.068L352.979 278.456L352.561 327.84L337.371 326.221L331.805 278.343L337.114 212.129L345.464 183.421L382.621 186.803Z" fill="#2F2E41"/>
<path d="M288.544 175.308C289.332 174.426 290.431 173.888 291.609 173.807C292.787 173.726 293.95 174.108 294.85 174.874C295.031 175.032 295.198 175.205 295.35 175.391L310.237 170.054L315.596 176.673L294.415 181.775C293.596 182.347 292.612 182.632 291.615 182.584C290.618 182.537 289.664 182.16 288.904 181.512C288.474 181.14 288.122 180.686 287.868 180.177C287.613 179.668 287.462 179.113 287.421 178.546C287.38 177.978 287.451 177.407 287.631 176.867C287.81 176.327 288.093 175.827 288.465 175.397C288.491 175.367 288.517 175.337 288.544 175.308Z" fill="#FFB6B6"/>
<path d="M372.184 100.598L359.895 101.185L354.018 111.362L345.668 113.873L338.571 131.45L342.924 186.244C342.924 186.244 343.797 189.558 342.19 189.075C340.583 188.591 341.238 192.744 341.238 192.744L335.317 215.575L389.155 210.882L386.165 186.693C386.165 186.693 390.321 186.827 387.399 183.898C384.477 180.968 383.055 181.901 385.863 178.438C388.67 174.975 389.088 172.464 389.088 172.464L390.34 155.305L392.405 131.156C392.733 127.325 392.105 123.471 390.578 119.943C389.052 116.415 386.675 113.322 383.66 110.943L372.184 100.598Z" fill="#BF77C8"/>
<path d="M401.188 220.211C401.848 219.23 402.1 218.029 401.891 216.864C401.681 215.7 401.026 214.663 400.066 213.975C399.868 213.838 399.66 213.718 399.443 213.616L400.965 197.841L393.251 194.25L393.497 216.086C393.144 217.022 393.109 218.049 393.399 219.006C393.688 219.963 394.286 220.798 395.099 221.379C395.564 221.705 396.089 221.936 396.644 222.059C397.199 222.182 397.772 222.194 398.331 222.094C398.89 221.995 399.425 221.786 399.903 221.48C400.382 221.174 400.796 220.776 401.121 220.309C401.144 220.277 401.166 220.244 401.188 220.211Z" fill="#FFB6B6"/>
<path d="M389.548 117.785C389.548 117.785 407.245 160.044 406.711 176.272L400.859 206.189L392.666 205.603L393.251 178.618C396.24 175.554 383.729 158.251 379.605 146.074L389.548 117.785Z" fill="#BF77C8"/>
<path d="M346.503 113.454C346.503 113.454 324.534 153.555 316.027 165.349L309.568 170.406V178.618L324.585 178.95C324.585 178.95 346.921 160.327 346.086 151.12C345.251 141.913 346.503 113.454 346.503 113.454Z" fill="#BF77C8"/>
<path d="M365.811 97.7723C374.419 97.7723 381.396 90.7778 381.396 82.1496C381.396 73.5215 374.419 66.527 365.811 66.527C357.204 66.527 350.227 73.5215 350.227 82.1496C350.227 90.7778 357.204 97.7723 365.811 97.7723Z" fill="#FFB6B6"/>
<path d="M371.833 96.4917C367.361 96.3446 366.955 95.1605 362.482 95.0134C361.058 94.9666 359.378 94.7709 358.69 93.5205C358.199 92.6299 358.425 91.5084 358.856 90.5877C359.367 89.7091 359.827 88.802 360.234 87.8709C360.48 87.1408 360.544 86.3617 360.422 85.601C360.299 84.8403 359.994 84.1209 359.532 83.5049C359.071 82.889 358.466 82.395 357.771 82.0657C357.076 81.7365 356.312 81.5818 355.544 81.615C354.183 81.674 352.905 82.3155 351.548 82.4328C349.686 82.5936 345.57 76.4331 346.427 74.7689C347.262 73.1491 348.94 71.9269 349.204 70.1233C349.377 68.9436 348.891 67.7714 348.825 66.581C348.726 64.8159 353.19 68.7958 352.372 67.2294C350.367 63.3867 369.263 58.6228 372.374 63.4361C373.536 65.235 375.608 65.1123 377.455 66.1927C378.666 66.9008 381.722 69.3436 382.417 70.8662C383.055 72.4198 383.357 74.0918 383.302 75.7712C383.33 83.5815 382.143 90.7659 375.858 95.3826" fill="#2F2E41"/>
</g>
<defs>
<clipPath id="clip0_11368_846">
<rect width="428" height="353" fill="white"/>
</clipPath>
</defs>
</svg>
