<svg width="368" height="249" viewBox="0 0 368 249" fill="none" xmlns="http://www.w3.org/2000/svg">
<g clip-path="url(#clip0_11353_1000)">
<path d="M176.88 66.7256C180.977 62.5724 186.449 61.3116 189.102 63.9093C191.755 66.507 190.584 71.9786 186.485 76.1328C184.871 77.8146 182.875 79.0868 180.666 79.8429L163.084 97.2219L155.073 88.8291L173.256 72.5876C173.977 70.3733 175.22 68.3632 176.88 66.7256Z" fill="#FFB6B6"/>
<path d="M120.651 52.3801L139.085 93.1178L168.522 77.2453L179.057 82.8149C179.057 82.8149 154.993 122.89 138.516 118.328C122.04 113.766 92.7819 72.4006 98.0535 59.6339C103.325 46.8673 120.651 52.3801 120.651 52.3801Z" fill="#BF77C8"/>
<path d="M206.159 75.1735C201.879 71.2071 200.465 65.7925 202.999 63.0799C205.534 60.3674 211.057 61.3844 215.337 65.3528C217.069 66.9146 218.4 68.8668 219.219 71.0462L237.138 88.0801L228.934 96.2862L212.14 78.6225C209.898 77.9652 207.847 76.7825 206.159 75.1735Z" fill="#A0616A"/>
<path d="M296.42 77.7992L261.833 114.481C261.833 114.481 254.066 122.136 241.287 111.096C228.509 100.056 214.302 81.9436 214.302 81.9436L222.272 73.3025L236.39 85.8494C236.39 85.8494 244.772 89.2092 245.354 91.383C245.937 93.5569 244.308 94.4561 246.927 93.7595C249.545 93.0629 249.597 91.509 249.761 93.8657C249.925 96.2225 248.325 98.9768 251.351 96.3089C254.376 93.641 255.279 95.264 255.279 95.264L277.385 66.0946C277.385 66.0946 291.669 54.8425 295.776 64.9288C299.882 75.0152 296.42 77.7992 296.42 77.7992Z" fill="#5C395A"/>
<path d="M267.487 85.5445H300.798V36.5134L267.487 36.5134V85.5445Z" fill="#2F2E41"/>
<path d="M293.321 70.5942L292.154 56.5509H276.643L273.205 71.4295L293.321 70.5942Z" fill="#A0616A"/>
<path opacity="0.1" d="M293.321 70.5942L292.154 56.5509H276.643L273.205 71.4295L293.321 70.5942Z" fill="black"/>
<path d="M122.739 54.9943L123.011 36.9347L111.831 29.9924L99.6741 44.8056L122.739 54.9943Z" fill="#FFB6B6"/>
<path opacity="0.1" d="M122.739 54.9943L123.463 37.3847L111.831 29.9924L115.783 51.7851L122.739 54.9943Z" fill="black"/>
<path d="M281.956 61.0192C291.32 61.0192 298.911 53.4575 298.911 44.1296C298.911 34.8017 291.32 27.2399 281.956 27.2399C272.592 27.2399 265.001 34.8017 265.001 44.1296C265.001 53.4575 272.592 61.0192 281.956 61.0192Z" fill="#A0616A"/>
<path d="M277.679 26.3605C277.679 26.3605 277.679 19.4268 284.143 20.9126C290.606 22.3984 292.595 24.8747 292.595 24.8747C292.595 24.8747 295.081 28.8369 299.058 29.3321C303.036 29.8274 306.516 41.2184 306.019 43.6948C305.521 46.1711 303.036 52.6095 306.516 55.5811C309.996 58.5527 314.968 63.01 313.476 67.4674C311.985 71.9248 307.51 83.3158 307.51 83.3158C307.51 83.3158 319.991 85.1331 318.971 92.8916C318.971 92.8916 312.979 88.2685 305.024 88.2685C297.069 88.2685 298.064 73.8922 298.064 73.8922C298.064 73.8922 297.567 64.9911 296.075 62.5148C294.584 60.0385 296.572 46.1711 289.115 38.7421C281.657 31.3132 277.679 26.3605 277.679 26.3605Z" fill="#2F2E41"/>
<path d="M279.668 24.8747C279.668 24.8747 270.222 26.8558 266.741 36.2658C263.261 45.6758 265.019 47.4267 265.019 47.4267C265.019 47.4267 264.249 53.093 260.026 55.0799C255.803 57.0668 259.284 65.4863 259.284 65.4863C259.284 65.4863 258.289 73.9058 244.865 76.8774C231.442 79.849 261.699 102.637 261.699 102.637C261.699 102.637 259.524 91.8815 273.445 91.3862C287.366 90.8909 270.719 65.4863 270.719 65.4863L269.227 49.1426C269.227 49.1426 272.21 30.3226 281.159 27.8463C290.109 25.37 279.668 24.8747 279.668 24.8747Z" fill="#2F2E41"/>
<path d="M122.774 42.5545C133.755 42.5545 142.657 33.6869 142.657 22.7482C142.657 11.8094 133.755 2.94177 122.774 2.94177C111.793 2.94177 102.891 11.8094 102.891 22.7482C102.891 33.6869 111.793 42.5545 122.774 42.5545Z" fill="#FFB6B6"/>
<path d="M149.89 174.414L131.368 299.967H108.13L111.22 228.298L112.846 190.614L108.13 172.677C108.13 172.677 105.98 168.689 104.168 163.856C102.126 158.402 100.514 151.863 102.908 148.763C103.789 147.62 106.079 146.774 109.192 146.144C111.094 145.757 113.307 145.455 115.697 145.221C129.439 143.867 148.987 144.713 148.987 144.713L149.484 161.048L149.759 170.17L149.89 174.414Z" fill="#2F2E41"/>
<path d="M149.759 170.17L139.929 189.804L111.22 228.298L63.9578 291.673L43.4888 280.72L99.5966 186.613L103.97 168.586C103.97 168.586 103.97 166.637 104.168 163.856C104.557 158.353 105.722 149.582 109.192 146.144C109.662 145.676 110.172 145.307 110.728 145.059C111.771 144.591 113.506 144.704 115.697 145.221C124.85 147.399 141.93 156.755 149.484 161.048L149.759 170.17Z" fill="#2F2E41"/>
<path d="M297.361 173.127L292.644 191.064L293.9 220.171L295.983 268.516L296.042 269.879L296.276 275.315L297.361 300.417H274.122L263.777 230.292L255.601 174.864L256.459 146.639L256.504 145.163C256.504 145.163 298.065 143.363 302.583 149.213C307.101 155.063 297.361 173.127 297.361 173.127Z" fill="#3D4551"/>
<path d="M329.693 282.372L325.753 284.401L311.184 291.912L309.052 293.01L296.276 275.315L263.777 230.292L255.601 174.864L256.459 146.639C260.136 145.473 263.077 144.996 264.568 145.689C271.281 148.817 270.96 169.319 270.96 169.319L275.049 187.41L293.9 220.171L329.693 282.372Z" fill="#3D4551"/>
<path d="M102.23 40.9848L124.818 51.7851C124.818 51.7851 148.761 122.437 148.761 126.037C148.761 129.637 155.537 131.887 151.471 135.937C147.406 139.988 159.039 143.418 152.771 146.653C146.502 149.888 107.399 167.584 103.051 165.988C91.0584 161.587 103.559 145.414 103.559 145.414C103.559 145.414 94.5505 138.188 95.9057 134.587C97.261 130.987 87.7742 62.1354 87.7742 62.1354L102.23 40.9848Z" fill="#BF77C8"/>
<path d="M121.56 27.4921L124.117 32.5872C124.117 32.5872 126.674 23.4161 130.766 21.3781C134.858 19.3401 135.369 16.2831 135.369 16.2831C135.369 16.2831 140.484 22.9066 144.064 21.3781C147.645 19.8496 149.179 18.8306 145.087 12.7166C140.996 6.60258 142.018 9.65958 142.018 9.65958C142.018 9.65958 138.438 4.56457 138.95 6.09307C139.461 7.62157 135.881 2.01706 135.881 3.54556C135.881 5.07406 133.323 0.488548 133.323 2.01706C133.323 3.54556 122.582 -1.54946 124.117 0.488554C125.651 2.52656 114.91 -3.58746 109.796 4.56457C104.681 12.7166 97.5888 11.209 100.112 16.2936C102.635 21.3781 101.612 35.1347 101.612 35.1347H108.666C108.666 35.1347 115.933 21.3781 121.56 27.4921Z" fill="#2F2E41"/>
<path d="M272.145 70.4835L272.559 70.367L292.926 64.6333L309.189 86.6839L298.347 132.585L302.412 151.036C302.412 151.036 269.434 142.485 256.333 149.686C256.333 149.686 255.43 145.582 256.333 143.584C257.237 141.585 258.592 133.269 257.237 129.552C255.882 125.835 259.947 108.285 259.947 108.285C259.947 108.285 258.592 96.5842 264.465 90.734C270.338 84.8839 272.145 70.4835 272.145 70.4835Z" fill="#5C395A"/>
<path d="M253.592 153.57L182.025 118.14C181.669 117.964 181.358 117.721 181.1 117.419L169.933 104.309C169.193 103.439 169.032 102.212 169.525 101.183L190.464 57.4217C190.831 56.6549 191.513 56.0886 192.337 55.868C193.162 55.6478 194.037 55.797 194.741 56.2776L245.213 90.7653C246.249 91.4731 246.712 92.7567 246.364 93.9596L236.117 129.482C235.837 130.454 236.194 131.514 237.006 132.121L257.278 147.266C258.369 148.081 258.746 149.569 258.175 150.803L257.534 152.187C257.201 152.905 256.605 153.445 255.856 153.708C255.539 153.82 255.212 153.875 254.886 153.875C254.442 153.875 254.002 153.773 253.592 153.57Z" fill="#382936"/>
<path d="M253.021 144.947L233.099 128.436C232.927 128.292 232.792 128.116 232.697 127.923C232.516 127.558 232.48 127.122 232.615 126.721L243.968 93.6318C244.262 92.7768 243.945 91.8227 243.196 91.3097L195.897 59.0528C195.414 58.7198 194.808 58.6163 194.239 58.7648C193.665 58.9133 193.191 59.3004 192.929 59.8269L172.989 100.161C172.686 100.769 172.708 101.466 173.043 102.047C173.083 102.128 173.133 102.205 173.192 102.277L183.221 115.462C183.415 115.714 183.668 115.921 183.953 116.06L250.839 148.322C251.119 148.457 251.422 148.524 251.725 148.524C252.249 148.524 252.773 148.322 253.161 147.93C253.206 147.881 253.252 147.836 253.297 147.782C253.613 147.399 253.776 146.909 253.753 146.409C253.726 145.842 253.459 145.311 253.021 144.947Z" fill="white"/>
<path d="M253.021 144.947L233.099 128.436C232.927 128.292 232.792 128.116 232.697 127.923C232.516 127.558 232.48 127.122 232.615 126.721L243.968 93.6318C244.262 92.7768 243.945 91.8227 243.196 91.3097L195.897 59.0528C195.414 58.7198 194.808 58.6163 194.239 58.7648C193.665 58.9133 193.191 59.3004 192.929 59.8269L172.989 100.161C172.686 100.769 172.708 101.466 173.043 102.047C173.083 102.128 173.133 102.205 173.192 102.277L183.221 115.462C183.415 115.714 183.668 115.921 183.953 116.06L250.839 148.322C251.119 148.457 251.422 148.524 251.725 148.524C252.249 148.524 252.773 148.322 253.161 147.93C253.206 147.881 253.252 147.836 253.297 147.782C253.613 147.399 253.776 146.909 253.753 146.409C253.726 145.842 253.459 145.311 253.021 144.947Z" fill="#3A7D95" fill-opacity="0.05"/>
<path d="M180.835 97.6864C181 97.6864 181.159 97.5959 181.239 97.4388L197.452 65.3521C197.564 65.1299 197.475 64.8594 197.252 64.7478C197.028 64.6355 196.757 64.7254 196.645 64.9473L180.432 97.034C180.32 97.2562 180.409 97.5266 180.632 97.6383C180.698 97.671 180.767 97.6864 180.835 97.6864Z" fill="#C6CACE"/>
<path d="M189.418 103.087C189.584 103.087 189.743 102.996 189.822 102.839L206.035 70.7522C206.148 70.5301 206.058 70.2596 205.835 70.1479C205.611 70.0354 205.34 70.1257 205.228 70.3475L189.015 102.434C188.903 102.656 188.993 102.927 189.215 103.038C189.281 103.071 189.35 103.087 189.418 103.087Z" fill="#C6CACE"/>
<path d="M196.646 107.587C196.812 107.587 196.971 107.496 197.05 107.339L213.263 75.2524C213.376 75.0302 213.286 74.7598 213.063 74.6481C212.839 74.5358 212.569 74.6257 212.456 74.8476L196.243 106.934C196.131 107.156 196.221 107.427 196.444 107.539C196.509 107.571 196.578 107.587 196.646 107.587Z" fill="#C6CACE"/>
<path d="M204.451 112.987C204.617 112.987 204.776 112.896 204.855 112.739L221.069 80.6527C221.181 80.4305 221.091 80.16 220.868 80.0484C220.645 79.9361 220.374 80.026 220.262 80.2479L204.048 112.335C203.936 112.557 204.026 112.827 204.249 112.939C204.314 112.972 204.383 112.987 204.451 112.987Z" fill="#C6CACE"/>
<path d="M213.035 118.387C213.2 118.387 213.359 118.297 213.439 118.139L229.652 86.0528C229.764 85.8307 229.674 85.5602 229.452 85.4485C229.228 85.336 228.957 85.4263 228.845 85.6481L212.632 117.735C212.519 117.957 212.609 118.227 212.832 118.339C212.897 118.372 212.966 118.387 213.035 118.387Z" fill="#C6CACE"/>
<path d="M220.263 122.887C220.428 122.887 220.587 122.797 220.667 122.64L236.88 90.553C236.992 90.3308 236.902 90.0604 236.68 89.9487C236.456 89.8364 236.185 89.9263 236.073 90.1482L219.86 122.235C219.747 122.457 219.837 122.728 220.06 122.839C220.125 122.872 220.195 122.887 220.263 122.887Z" fill="#C6CACE"/>
<path d="M171.057 103.24C176.663 101.59 182.062 103.134 183.115 106.688C184.168 110.242 180.478 114.46 174.87 116.109C172.639 116.799 170.274 116.946 167.975 116.539L144.134 123.23L141.22 112.019L165.032 106.613C166.741 105.025 168.807 103.869 171.057 103.24Z" fill="#FFB6B6"/>
<path d="M128.889 63.5069L125.153 108.037L158.623 108.395L165.119 118.359C165.119 118.359 124.551 141.758 112.369 129.802C100.188 117.846 94.7678 67.5328 105.598 58.9207C116.429 50.3086 128.889 63.5069 128.889 63.5069Z" fill="#BF77C8"/>
<path d="M238.533 143.908C232.704 143.47 228.206 140.12 228.486 136.425C228.766 132.73 233.718 130.09 239.549 130.528C241.88 130.671 244.144 131.369 246.149 132.562L270.823 134.726L269.556 146.238L245.367 142.883C243.204 143.763 240.861 144.115 238.533 143.908Z" fill="#A0616A"/>
<path d="M310.746 89.6257L306.715 139.79C306.715 139.79 305.445 150.601 288.543 149.923C271.642 149.245 249.192 143.931 249.192 143.931L250.004 132.224L268.896 133.246C268.896 133.246 277.549 130.658 279.367 131.994C281.184 133.33 280.475 135.045 282.084 132.873C283.693 130.7 282.759 129.454 284.365 131.193C285.97 132.932 286.446 136.079 287.138 132.113C287.83 128.147 289.552 128.854 289.552 128.854L288.541 92.3197C288.541 92.3197 292.648 74.6465 302.177 79.9723C311.706 85.298 310.746 89.6257 310.746 89.6257Z" fill="#5C395A"/>
</g>
<defs>
<clipPath id="clip0_11353_1000">
<rect width="368" height="333" fill="white"/>
</clipPath>
</defs>
</svg>
