<svg width="356" height="256" viewBox="0 0 356 256" fill="none" xmlns="http://www.w3.org/2000/svg">
<g clip-path="url(#clip0_11353_891)">
<line y1="-2.5" x2="57.2512" y2="-2.5" transform="matrix(-0.790839 0.612024 -0.608431 -0.793607 142.56 73.1519)" stroke="#6499AF" stroke-width="5"/>
<line y1="-2.5" x2="90.7479" y2="-2.5" transform="matrix(-0.984368 -0.176123 0.174528 -0.984652 182.33 159.828)" stroke="#6499AF" stroke-width="5"/>
<line y1="-2.5" x2="62.1874" y2="-2.5" transform="matrix(-0.393549 -0.919304 0.917958 -0.396677 206.803 143.845)" stroke="#6499AF" stroke-width="5"/>
<path d="M229.574 162.874C229.557 172.579 226.676 182.06 221.296 190.119C215.915 198.178 208.277 204.453 199.347 208.151C190.417 211.849 180.596 212.803 171.126 210.893C161.656 208.983 152.963 204.294 146.145 197.42C139.327 190.546 134.692 181.795 132.824 172.274C130.957 162.753 131.941 152.889 135.653 143.931C139.365 134.972 145.638 127.32 153.679 121.943C161.719 116.566 171.166 113.705 180.825 113.722C187.243 113.717 193.598 114.986 199.527 117.456C205.455 119.927 210.839 123.55 215.369 128.117C219.899 132.685 223.486 138.107 225.924 144.072C228.361 150.036 229.602 156.426 229.574 162.874Z" fill="white"/>
<path d="M229.574 162.874C229.557 172.579 226.676 182.06 221.296 190.119C215.915 198.178 208.277 204.453 199.347 208.151C190.417 211.849 180.596 212.803 171.126 210.893C161.656 208.983 152.963 204.294 146.145 197.42C139.327 190.546 134.692 181.795 132.824 172.274C130.957 162.753 131.941 152.889 135.653 143.931C139.365 134.972 145.638 127.32 153.679 121.943C161.719 116.566 171.166 113.705 180.825 113.722C187.243 113.717 193.598 114.986 199.527 117.456C205.455 119.927 210.839 123.55 215.369 128.117C219.899 132.685 223.486 138.107 225.924 144.072C228.361 150.036 229.602 156.426 229.574 162.874Z" fill="#3A7D95" fill-opacity="0.05"/>
<path d="M310.834 191.676L317.661 178.503C311.539 171.032 291.451 161.97 291.451 161.97L264.264 136.964C263.974 135.849 263.399 134.83 262.596 134.01C261.793 133.191 260.79 132.599 259.689 132.296C258.588 131.992 257.427 131.987 256.324 132.281C255.22 132.575 254.212 133.157 253.402 133.97C252.592 134.782 252.008 135.796 251.709 136.909C251.41 138.022 251.406 139.195 251.698 140.31C251.991 141.425 252.568 142.443 253.373 143.26C254.178 144.078 255.182 144.667 256.284 144.968L285.656 180.565L310.834 191.676Z" fill="#9E616A"/>
<path d="M307.621 190.613L317.353 193.751C324.43 196.032 332.057 195.861 339.027 193.262C341.135 192.468 342.982 191.092 344.359 189.29C345.735 187.488 346.587 185.332 346.817 183.066C347.108 179.993 346.236 176.922 344.376 174.474C342.517 172.026 339.809 170.385 336.8 169.882C327.673 168.363 315.913 167.614 311.717 172.669L311.675 172.721L307.621 190.613Z" fill="#2E6276"/>
<path d="M237.79 231.112C264.761 231.112 286.626 209.145 286.626 182.047C286.626 154.949 264.761 132.981 237.79 132.981C210.818 132.981 188.954 154.949 188.954 182.047C188.954 209.145 210.818 231.112 237.79 231.112Z" fill="white"/>
<path d="M217.392 162.043C216.722 165.661 215.623 169.186 214.118 172.542C205.502 190.854 230.039 184.885 238.807 184.885C248.394 184.885 257.567 189.95 256.166 167.445C255.567 157.832 248.394 150.005 238.807 150.005C230.618 150.005 219.105 153.661 217.392 162.043Z" fill="#0F191C"/>
<path d="M237.371 184.881C245.161 184.881 251.477 178.536 251.477 170.709C251.477 162.882 245.161 156.536 237.371 156.536C229.58 156.536 223.265 162.882 223.265 170.709C223.265 178.536 229.58 184.881 237.371 184.881Z" fill="#FFB6B6"/>
<path d="M227.791 156.262C230.263 154.748 233.095 153.929 235.989 153.891C238.884 153.852 241.736 154.596 244.246 156.044C246.757 157.492 248.834 159.591 250.261 162.122C251.688 164.653 252.412 167.522 252.357 170.43C245.17 172.243 237.618 173.631 229.953 170.864L228.143 166.412L227.076 170.867C224.742 171.826 222.401 172.637 220.061 170.858C219.965 167.958 220.629 165.084 221.986 162.522C223.342 159.961 225.344 157.802 227.791 156.262Z" fill="#0F191C"/>
<path d="M275.303 213.867C266.841 223.54 254.933 229.482 242.148 230.411C229.363 231.339 216.728 227.179 206.969 218.828L211.159 207.084C212.105 204.998 213.599 203.21 215.481 201.912C217.362 200.614 219.559 199.856 221.837 199.717L224.502 199.552L230.857 194.046C230.857 194.046 247.98 193.431 247.726 193.137L258.098 199.405L258.089 199.362L262.167 199.613C264.445 199.751 266.642 200.51 268.523 201.808C270.404 203.105 271.898 204.894 272.844 206.98L275.303 213.867Z" fill="#ADCFDC"/>
<path d="M306.023 150.865C315.223 150.865 322.682 143.371 322.682 134.128C322.682 124.884 315.223 117.39 306.023 117.39C296.822 117.39 289.364 124.884 289.364 134.128C289.364 143.371 296.822 150.865 306.023 150.865Z" fill="#9E616A"/>
<path d="M344.251 289.991C311.617 296.739 268.369 285.138 268.369 285.138L279.906 235.067L275.804 182.666C275.303 176.258 278.949 170.252 284.62 168.123L292.45 165.187L298.922 155.909L317.41 156.516L324.801 166.256L330.633 169.355L343.277 176.069L343.333 176.097V176.125L339.365 214.662L336.972 237.897C336.972 237.897 344.24 264.03 342.749 267.496C341.257 270.957 342.554 269.285 342.916 271.135C343.277 272.985 344.385 273.102 344.552 276.746C344.724 280.385 344.251 289.991 344.251 289.991Z" fill="#2E6276"/>
<path d="M305.196 150.384C308.138 150.353 311.072 150.07 313.967 149.538C316.833 148.874 323.155 143.956 324.878 141.051C326.158 138.893 326.927 135.554 327.346 133.134C327.912 129.931 327.803 126.643 327.026 123.485C326.249 120.327 324.821 117.368 322.834 114.8C322.068 113.724 321.028 112.877 319.823 112.347C319.716 112.308 319.606 112.274 319.496 112.246C317.749 111.832 316.165 110.902 314.947 109.575C314.71 109.307 314.455 109.056 314.183 108.824C312.816 107.724 311.211 106.964 309.497 106.608C306.728 105.939 302.767 106.777 297.725 109.101C295.192 110.269 292.38 109.943 290.213 109.529C290.091 109.508 289.967 109.52 289.851 109.564C289.736 109.607 289.634 109.68 289.555 109.775C288.66 110.664 287.464 111.18 286.207 111.219C285.437 111.273 284.656 112.367 283.716 113.791C283.502 114.115 283.253 114.492 283.072 114.722L283.036 114.29L282.613 114.784C281.947 115.561 281.488 116.495 281.278 117.499C281.068 118.502 281.114 119.543 281.412 120.524C281.709 121.505 282.249 122.394 282.98 123.109C283.711 123.824 284.611 124.341 285.594 124.612C286.374 124.799 287.171 124.906 287.973 124.93C288.459 124.962 288.962 124.994 289.445 125.065C290.995 125.343 292.448 126.02 293.661 127.032C294.874 128.043 295.806 129.353 296.365 130.834C296.497 131.176 296.705 131.484 296.974 131.732C297.243 131.98 297.565 132.163 297.915 132.267C298.266 132.37 298.635 132.391 298.994 132.328C299.354 132.265 299.694 132.12 299.989 131.904C300.48 131.499 301.061 131.219 301.682 131.088C302.304 130.958 302.947 130.98 303.558 131.154C304.09 131.433 304.509 131.888 304.747 132.441C305.034 133.057 305.497 133.573 306.077 133.924C308.056 134.885 308.305 139.367 307.7 143.123C307.117 146.745 305.848 149.386 304.614 149.547C303.664 149.671 303.557 149.742 303.493 149.913L303.435 150.066L303.546 150.205C304.076 150.383 304.639 150.444 305.196 150.384Z" fill="#0F191C"/>
<path d="M238.018 231.571C228.224 231.571 218.65 228.653 210.506 223.186C202.362 217.719 196.015 209.949 192.267 200.857C188.519 191.766 187.538 181.762 189.449 172.111C191.36 162.46 196.076 153.595 203.002 146.637C209.927 139.679 218.751 134.94 228.357 133.02C237.963 131.1 247.92 132.086 256.969 135.851C266.017 139.617 273.751 145.994 279.193 154.176C284.634 162.358 287.539 171.977 287.539 181.818C287.524 195.008 282.302 207.655 273.018 216.982C263.734 226.309 251.147 231.556 238.018 231.571ZM238.018 133.295C228.466 133.295 219.129 136.141 211.187 141.473C203.245 146.804 197.055 154.383 193.399 163.249C189.744 172.115 188.787 181.871 190.651 191.284C192.514 200.696 197.114 209.342 203.868 216.128C210.622 222.914 219.228 227.535 228.596 229.407C237.964 231.28 247.675 230.319 256.5 226.646C265.325 222.974 272.867 216.755 278.174 208.775C283.481 200.796 286.313 191.414 286.313 181.818C286.299 168.953 281.206 156.62 272.152 147.523C263.098 138.427 250.822 133.31 238.018 133.295Z" fill="#2E6276"/>
<path d="M176.631 98.5896C203.602 98.5896 225.467 76.6222 225.467 49.5241C225.467 22.4259 203.602 0.458557 176.631 0.458557C149.66 0.458557 127.795 22.4259 127.795 49.5241C127.795 76.6222 149.66 98.5896 176.631 98.5896Z" fill="white"/>
<path d="M154.984 29.8775C154.314 33.496 153.215 37.0209 151.71 40.3768C143.094 58.6892 167.631 52.7203 176.399 52.7203C185.986 52.7203 195.159 57.7853 193.758 35.2799C193.159 25.6666 185.986 17.8395 176.399 17.8395C168.21 17.8395 156.697 21.4964 154.984 29.8775Z" fill="#0F191C"/>
<path d="M174.963 52.716C182.753 52.716 189.069 46.3708 189.069 38.5437C189.069 30.7166 182.753 24.3714 174.963 24.3714C167.172 24.3714 160.857 30.7166 160.857 38.5437C160.857 46.3708 167.172 52.716 174.963 52.716Z" fill="#FFB6B6"/>
<path d="M165.384 24.097C167.855 22.583 170.687 21.764 173.581 21.7257C176.476 21.6873 179.328 22.431 181.838 23.879C184.349 25.327 186.426 27.4261 187.853 29.9568C189.28 32.4875 190.004 35.3569 189.949 38.2649C182.762 40.078 175.21 41.4655 167.545 38.6986L165.735 34.2475L164.668 38.7019C162.334 39.6605 159.993 40.4716 157.653 38.6926C157.557 35.7928 158.221 32.9186 159.578 30.3573C160.934 27.7959 162.936 25.6373 165.384 24.097Z" fill="#0F191C"/>
<path d="M212.895 81.7015C204.433 91.375 192.525 97.3172 179.74 98.2455C166.955 99.1738 154.32 95.0137 144.562 86.6632L148.751 74.9187C149.698 72.8327 151.192 71.0449 153.073 69.7472C154.954 68.4494 157.151 67.6905 159.429 67.5518L162.094 67.3875L168.449 61.8807C168.449 61.8807 185.572 61.2664 185.318 60.9723L195.69 67.2404L195.681 67.1971L199.759 67.448C202.037 67.586 204.234 68.3447 206.115 69.6426C207.996 70.9404 209.49 72.7285 210.436 74.8149L212.895 81.7015Z" fill="#ADCFDC"/>
<path d="M176.859 99.5067C167.065 99.5067 157.49 96.5887 149.347 91.1217C141.203 85.6548 134.856 77.8844 131.108 68.7931C127.36 59.7019 126.379 49.6982 128.29 40.047C130.201 30.3958 134.917 21.5306 141.843 14.5724C148.768 7.61431 157.592 2.87576 167.198 0.95602C176.804 -0.963724 186.761 0.0215541 195.81 3.78727C204.858 7.55298 212.592 13.93 218.034 22.1119C223.475 30.2938 226.379 39.9131 226.379 49.7534C226.365 62.9442 221.142 75.5904 211.859 84.9177C202.575 94.2451 189.988 99.4917 176.859 99.5067ZM176.859 1.23112C167.307 1.23112 157.97 4.07689 150.028 9.40858C142.085 14.7403 135.895 22.3184 132.24 31.1847C128.585 40.051 127.628 49.8072 129.492 59.2196C131.355 68.632 135.955 77.2778 142.709 84.0638C149.463 90.8497 158.069 95.471 167.437 97.3433C176.805 99.2155 186.516 98.2546 195.341 94.5821C204.165 90.9095 211.708 84.6903 217.015 76.7109C222.322 68.7314 225.154 59.3501 225.154 49.7534C225.14 36.8889 220.047 24.5556 210.993 15.4591C201.939 6.36255 189.663 1.24571 176.859 1.23112Z" fill="#2E6276"/>
<path d="M62.7565 176.086C89.8538 176.086 111.821 154.118 111.821 127.02C111.821 99.9219 89.8538 77.9545 62.7565 77.9545C35.6591 77.9545 13.6924 99.9219 13.6924 127.02C13.6924 154.118 35.6591 176.086 62.7565 176.086Z" fill="white"/>
<path d="M41.6271 107.32C40.9567 110.938 39.8575 114.463 38.3529 117.819C29.737 136.132 54.2733 130.163 63.0417 130.163C72.6287 130.163 81.8015 135.228 80.4005 112.722C79.8021 103.109 72.6287 95.2819 63.0417 95.2819C54.8529 95.2818 43.3394 98.9387 41.6271 107.32Z" fill="#0F191C"/>
<path d="M61.6055 130.158C69.396 130.158 75.7114 123.813 75.7114 115.986C75.7114 108.159 69.396 101.814 61.6055 101.814C53.815 101.814 47.4995 108.159 47.4995 115.986C47.4995 123.813 53.815 130.158 61.6055 130.158Z" fill="#FFB6B6"/>
<path d="M52.0261 101.539C54.4979 100.025 57.3292 99.2064 60.2239 99.168C63.1186 99.1297 65.9703 99.8734 68.481 101.321C70.9917 102.769 73.069 104.868 74.4959 107.399C75.9227 109.93 76.6467 112.799 76.592 115.707C69.4042 117.52 61.853 118.908 54.1879 116.141L52.3777 111.69L51.3105 116.144C48.9762 117.103 46.6358 117.914 44.2954 116.135C44.1999 113.235 44.8636 110.361 46.2202 107.8C47.5768 105.238 49.5788 103.08 52.0261 101.539Z" fill="#0F191C"/>
<path d="M99.5375 159.144C91.0758 168.817 79.1671 174.76 66.3824 175.688C53.5977 176.616 40.9624 172.456 31.2041 164.106L35.3934 152.361C36.3401 150.275 37.8341 148.487 39.7152 147.19C41.5963 145.892 43.7935 145.133 46.0712 144.994L48.7363 144.83L55.0913 139.323C55.0913 139.323 72.2145 138.709 71.9605 138.415L82.3326 144.683L82.3239 144.639L86.4013 144.89C88.6791 145.028 90.8766 145.787 92.7578 147.085C94.639 148.383 96.1328 150.171 97.0791 152.257L99.5375 159.144Z" fill="#ADCFDC"/>
<path d="M62.7564 177.003C52.9621 177.003 43.3879 174.085 35.2442 168.618C27.1006 163.151 20.7535 155.38 17.0054 146.289C13.2573 137.198 12.2766 127.194 14.1874 117.543C16.0981 107.892 20.8145 99.0265 27.7401 92.0684C34.6656 85.1103 43.4893 80.3717 53.0954 78.452C62.7014 76.5322 72.6584 77.5175 81.707 81.2832C90.7557 85.049 98.4898 91.426 103.931 99.6079C109.373 107.79 112.277 117.409 112.277 127.249C112.262 140.44 107.04 153.086 97.7562 162.414C88.4725 171.741 75.8854 176.988 62.7564 177.003ZM62.7564 78.7271C53.2045 78.7271 43.8671 81.5729 35.925 86.9046C27.9829 92.2362 21.7928 99.8144 18.1374 108.681C14.4821 117.547 13.5257 127.303 15.3892 136.716C17.2527 146.128 21.8523 154.774 28.6065 161.56C35.3607 168.346 43.9661 172.967 53.3344 174.839C62.7028 176.711 72.4133 175.751 81.2381 172.078C90.0629 168.405 97.6056 162.186 102.912 154.207C108.219 146.227 111.052 136.846 111.052 127.249C111.037 114.385 105.944 102.052 96.8902 92.955C87.8362 83.8585 75.5606 78.7417 62.7564 78.7271Z" fill="#2E6276"/>
<path d="M282.974 207.343L275.597 194.428C266.041 195.653 247.645 207.972 247.645 207.972L212.061 217.801C210.97 217.449 209.806 217.394 208.687 217.641C207.568 217.888 206.533 218.428 205.687 219.207C204.84 219.986 204.212 220.976 203.865 222.078C203.518 223.18 203.465 224.355 203.711 225.485C203.957 226.614 204.493 227.658 205.266 228.512C206.038 229.365 207.02 229.998 208.112 230.347C209.204 230.696 210.368 230.748 211.486 230.499C212.605 230.249 213.638 229.706 214.483 228.925L260.122 222.915L282.974 207.343Z" fill="#9E616A"/>
<path d="M280.568 209.56L297.182 195.71L299.6 184.561C300.066 182.371 299.908 180.094 299.142 177.989C298.377 175.883 297.036 174.033 295.269 172.647C292.862 170.783 289.833 169.899 286.796 170.173C283.759 170.447 280.94 171.859 278.908 174.123C272.753 180.993 265.829 190.482 267.798 196.669L267.818 196.732L280.568 209.56Z" fill="#2E6276"/>
<path d="M217.594 35.7674C215.381 35.7674 213.6 37.5496 213.6 39.7634V59.7433C213.6 61.9571 215.381 63.7393 217.594 63.7393H241.555C243.768 63.7393 245.549 61.9571 245.549 59.7433V39.7634C245.549 37.5496 243.768 35.7674 241.555 35.7674H217.594Z" fill="#2E6276"/>
<path d="M233.591 39.8944H225.558V45.9473H219.533V54.0179H225.558V60.0709H233.591V54.0179H239.615V45.9473H233.591V39.8944Z" fill="white"/>
<path d="M14.0917 147.655C11.8476 147.655 10.041 149.437 10.041 151.651V171.631C10.041 173.845 11.8476 175.627 14.0917 175.627H38.3955C40.6396 175.627 42.4461 173.845 42.4461 171.631V151.651C42.4461 149.437 40.6396 147.655 38.3955 147.655H14.0917Z" fill="#2E6276"/>
<path d="M30.4881 151.782H22.4553V157.835H16.4307V165.906H22.4553V171.959H30.4881V165.906H36.5127V157.835H30.4881V151.782Z" fill="white"/>
</g>
<defs>
<clipPath id="clip0_11353_891">
<rect width="356" height="343" fill="white"/>
</clipPath>
</defs>
</svg>
